<svg version="1" xmlns="http://www.w3.org/2000/svg" width="213.333" height="213.333" viewBox="0 0 160.000000 160.000000"><path d="M126.5 23.1c-.4.6-.5 1.2-.2 1.5.2.3.7-.2 1-1.1.7-1.7.1-2-.8-.4zM125.3 27.7c-.3 1-.8 2.2-1.1 2.7-.3.5 0 .6.5.3 1.1-.7 2.5-4.7 1.7-4.7-.3 0-.7.8-1.1 1.7zM120.1 43.7c-1 2.6-1 2.7.4.9.8-1.1 1.5-2.3 1.5-2.8 0-1.5-.7-.8-1.9 1.9zM130.1 43.2c-1.6 4.3-2.2 6.8-1.8 6.8.3 0 1.2-2 2-4.5 1.6-4.5 1.4-6.5-.2-2.3zM118.6 48.5c-.9 2.6-.7 3.2.5 1.2.6-1 .9-2.1.6-2.3-.2-.3-.7.2-1.1 1.1zM98.5 49.7c-1.1.3-2.6 1.2-3.3 2.1-.8 1-2.5 1.5-4.7 1.4-2-.2-5.6.6-8.1 1.7-2.4 1.1-4.7 2-4.9 2-3.9.2-13.7 9.4-16.2 15.1-.8 1.9-2.4 5.1-3.4 7-1.1 1.9-2.7 5-3.7 6.8l-1.6 3.3-9.6-.6c-20.1-1.2-32.4-2.2-37.7-3.1l-3.6-.6 2.8 4.9c3.9 6.6 5.5 8.9 5.5 7.7 0-.5-.4-1.4-.8-2-.5-.5-1.9-2.6-3.1-4.6l-2.2-3.7 3.4.1c3.3.1 3.7.6 6.7 6.5 1.8 3.5 3.4 6.2 3.6 6 .2-.2-1-2.9-2.6-6.1l-3-5.8 4.5.4c2.5.3 4.7.7 4.9.9.1.2 1.7 3.5 3.4 7.2l3.2 6.9-4.3-.6c-2.3-.4-5.4-.8-6.9-1-1.5-.1-3.4-.9-4.3-1.6-3.1-2.6-2.6 0 1.6 8.7 2.4 4.8 4.4 9 4.4 9.3.1.5 1.8 3.9 13.2 26 5.2 10.1 5.8 10.4 25.3 10.3 8.5 0 34.7-.2 58.3-.3 23.5-.2 43-.6 43.2-1.1.6-.9-1.4-2.4-3.5-2.4-1.6-.1-6.1-2.4-4.7-2.5.4 0 .3-.8-.2-1.8-.6-1.1-1.2-3.2-1.5-4.8-.3-1.6-2-9.5-3.7-17.6-3.7-16.6-3.8-16.8-13-17.3-3-.1-5.7-.3-6-.4-.3-.1-1.4-3.1-2.4-6.9-1-3.7-2.6-8.3-3.6-10.2-1.5-3-1.7-5-1-11.5.1-.7 2.2-1 5.4-.8 2.8.2 6.7.4 8.5.5 1.7 0 3.5-.1 3.7-.4.3-.3-.4-2.2-1.6-4.2-1.1-2-1.6-3.6-1-3.6 2.2 0 1-2.3-3.4-6.6-3.9-3.8-4.4-4.7-3.5-6.4.7-1.4.7-2 0-2-.9 0-1.5 2.1-1.1 4.2.3 1.8-2.7.6-9.9-4-5.4-3.4-13.4-5.5-17.5-4.5zM30.8 89.1c3.4.1 6.6.7 7.1 1.3.4.6 1.8 3.9 2.9 7.4l2.1 6.3-6.9-.3-6.9-.3-3.1-6.8c-3-6.8-3.7-9.2-2.2-8.3.5.3 3.6.6 7 .7zm20.8 2.1c.3.4.1.8-.3.8-.5 0-1.4 1.9-2.1 4.2-.7 2.4-2.1 5.4-3.1 6.7l-1.8 2.4-2.6-7.7-2.6-7.6 6 .2c3.3.1 6.3.6 6.5 1zM127 52.1c0 .5.5.7 1 .4.6-.3 1-.8 1-1.1 0-.2-.4-.4-1-.4-.5 0-1 .5-1 1.1z"/></svg>